<svg id="people" xmlns="http://www.w3.org/2000/svg" width="22" height="22" viewBox="0 0 22 22">
  <g id="profile-2user_twotone" data-name="profile-2user/twotone">
    <g id="vuesax_twotone_profile-2user" data-name="vuesax/twotone/profile-2user">
      <g id="profile-2user">
        <path id="Vector" d="M4.233,8.163a1.673,1.673,0,0,0-.3,0,4.091,4.091,0,1,1,.3,0Z" transform="translate(4.17 1.841)" fill="none" stroke="#000" stroke-linecap="round" stroke-linejoin="round" stroke-width="1.5"/>
        <path id="Vector-2" data-name="Vector" d="M.12,0A3.219,3.219,0,0,1,3.341,3.221a3.226,3.226,0,0,1-3.1,3.221,1.039,1.039,0,0,0-.239,0" transform="translate(14.913 3.661)" fill="none" stroke="#000" stroke-linecap="round" stroke-linejoin="round" stroke-width="1.5" opacity="0.4"/>
        <path id="Vector-3" data-name="Vector" d="M1.67,1.263c-2.227,1.491-2.227,3.921,0,5.4a8.988,8.988,0,0,0,9.212,0c2.227-1.491,2.227-3.921,0-5.4A9.03,9.03,0,0,0,1.67,1.263Z" transform="translate(2.158 12.049)" fill="none" stroke="#000" stroke-linecap="round" stroke-linejoin="round" stroke-width="1.5"/>
        <path id="Vector-4" data-name="Vector" d="M0,5.522a4.452,4.452,0,0,0,1.8-.8,2.331,2.331,0,0,0,0-3.93A4.577,4.577,0,0,0,.028,0" transform="translate(16.791 12.816)" fill="none" stroke="#000" stroke-linecap="round" stroke-linejoin="round" stroke-width="1.5" opacity="0.4"/>
        <path id="Vector-5" data-name="Vector" d="M0,0H22V22H0Z" transform="translate(22 22) rotate(180)" fill="none" opacity="0"/>
      </g>
    </g>
  </g>
</svg>
