<svg xmlns="http://www.w3.org/2000/svg" width="20.11" height="20" viewBox="0 0 20.11 20">
  <path id="star" d="M11.792,1.444l1.775,3.549a2.214,2.214,0,0,0,1.422,1.057l3.209.529c2.051.34,2.53,1.825,1.057,3.31l-2.5,2.5a2.173,2.173,0,0,0-.516,1.825l.717,3.1c.566,2.442-.743,3.4-2.895,2.114l-3.008-1.787a2.137,2.137,0,0,0-1.989,0L6.053,19.429C3.9,20.7,2.592,19.756,3.158,17.315l.717-3.1a2.2,2.2,0,0,0-.516-1.825l-2.5-2.5C-.617,8.417-.139,6.932,1.912,6.579l3.209-.529A2.174,2.174,0,0,0,6.544,4.993L8.318,1.444C9.262-.481,10.823-.481,11.792,1.444Z"/>
</svg>
