<svg id="saudi_arabia" xmlns="http://www.w3.org/2000/svg" width="30.526" height="20" viewBox="0 0 30.526 20">
  <path id="Path_1" data-name="Path 1" d="M28.24,108.276H2.286A2.286,2.286,0,0,1,0,105.99V90.562a2.286,2.286,0,0,1,2.286-2.286H28.24a2.286,2.286,0,0,1,2.286,2.286V105.99A2.286,2.286,0,0,1,28.24,108.276Z" transform="translate(0 -88.276)" fill="#73af00"/>
  <g id="Group_6" data-name="Group 6" transform="translate(6.035 4.211)">
    <path id="Path_2" data-name="Path 2" d="M102.422,168.228c.052.333.253.437.428.423a.43.43,0,0,0,.387-.4v-1.141a.1.1,0,0,1,.207,0v1.146a.415.415,0,0,0,.569.385l.1-.041c.01.958-.049,1.8-.05,1.815a.207.207,0,0,0,.192.222h.015a.208.208,0,0,0,.207-.193c0-.067.069-.989.05-2.01l.063-.025a.208.208,0,0,1,.17.007.593.593,0,0,0,.684-.111l.037-.037a.619.619,0,0,0,.15-.637l-.177-.53a.207.207,0,0,0,.154-.384l-.415-.207a.207.207,0,0,0-.29.251l.334,1a.207.207,0,0,1-.05.212l-.037.037a.178.178,0,0,1-.205.033.62.62,0,0,0-.431-.043,7.156,7.156,0,0,0-.254-1.787.207.207,0,0,0-.394.131,7.133,7.133,0,0,1,.238,1.811l-.248.1v-1.146a.519.519,0,1,0-1.037,0v1l-.212-1.045a.207.207,0,1,0-.407.082Z" transform="translate(-102.141 -165.642)" fill="#f5f5f5"/>
    <path id="Path_3" data-name="Path 3" d="M109.367,163.216a.207.207,0,0,0,.207-.207V162.8a.207.207,0,1,0-.415,0v.207A.207.207,0,0,0,109.367,163.216Z" transform="translate(-108.687 -162.374)" fill="#f5f5f5"/>
    <path id="Path_4" data-name="Path 4" d="M144.164,163.009h.207a.207.207,0,1,0,0-.415h-.207a.207.207,0,1,0,0,.415Z" transform="translate(-141.409 -162.374)" fill="#f5f5f5"/>
    <path id="Path_5" data-name="Path 5" d="M106.817,214.819l-1.037.622a.207.207,0,1,0,.214.356l1.037-.622a.207.207,0,1,0-.214-.356Z" transform="translate(-105.414 -211.457)" fill="#f5f5f5"/>
    <path id="Path_6" data-name="Path 6" d="M119.358,169.373l0,0a.473.473,0,0,0,.1.195.408.408,0,0,0,.354.137.572.572,0,0,0,.432-.227.379.379,0,0,0,.044.026.393.393,0,0,0,.365-.012.788.788,0,0,0,.372-.73.212.212,0,0,0-.216-.2.208.208,0,0,0-.2.215s0,.249-.146.34a.505.505,0,0,1-.065-.175.207.207,0,0,0-.412.034c0,.03-.007.3-.212.319a.507.507,0,0,1,0-.272.207.207,0,0,0-.318-.22l-.116.079c-.055-1.2-.182-2.605-.183-2.623a.207.207,0,1,0-.413.038c0,.019.148,1.641.193,2.88l-.032.031a.535.535,0,0,0-.454-.357.757.757,0,0,0-.731.462.491.491,0,0,0,.159.619.692.692,0,0,0,.619.028,1.735,1.735,0,0,1-.337.64.871.871,0,0,1-.663.338.545.545,0,0,1-.4-.172,1.185,1.185,0,0,1-.219-.742.207.207,0,0,0-.2-.218.2.2,0,0,0-.219.2,1.591,1.591,0,0,0,.326,1.043.951.951,0,0,0,.695.308h.042a1.264,1.264,0,0,0,.952-.483,2.146,2.146,0,0,0,.475-1.063,2.351,2.351,0,0,1-1,1.863,1.036,1.036,0,0,1-1.039.076.89.89,0,0,1-.456-.878.207.207,0,0,0-.412-.051,1.3,1.3,0,0,0,.685,1.3,1.41,1.41,0,0,0,.628.15,1.535,1.535,0,0,0,.814-.245,2.758,2.758,0,0,0,1.192-2.217C119.365,169.673,119.362,169.527,119.358,169.373Zm-1.251.214c-.037-.025-.008-.1,0-.118a.353.353,0,0,1,.29-.2h.017c.027,0,.1.009.127.166,0,.017.006.034.008.051C118.315,169.618,118.16,169.622,118.107,169.587Z" transform="translate(-115.157 -165.644)" fill="#f5f5f5"/>
    <path id="Path_7" data-name="Path 7" d="M102.01,243.491a.208.208,0,0,0-.284.074.426.426,0,0,1-.035.049l-.007-.017a1.4,1.4,0,0,1,.006-.7.207.207,0,0,0-.4-.107,1.787,1.787,0,0,0,.006.957c.1.254.241.318.347.326h.028a.545.545,0,0,0,.413-.3A.207.207,0,0,0,102.01,243.491Z" transform="translate(-101.225 -237.64)" fill="#f5f5f5"/>
    <path id="Path_8" data-name="Path 8" d="M175.336,164.461a.206.206,0,0,0,.128-.044l1.046-.821a.2.2,0,0,0,.034-.04.519.519,0,1,0-.6-.046l-.74.581a.207.207,0,0,0,.128.37Zm.942-1.452a.1.1,0,1,1-.1.1A.1.1,0,0,1,176.278,163.009Z" transform="translate(-170.722 -162.374)" fill="#f5f5f5"/>
    <path id="Path_9" data-name="Path 9" d="M185.456,190.442a.207.207,0,0,0-.263.131.634.634,0,0,0,.081.612.419.419,0,0,0,.31.118.911.911,0,0,0,.287-.053.207.207,0,1,0-.131-.393.72.72,0,0,1-.169.036.4.4,0,0,1,.017-.19A.207.207,0,0,0,185.456,190.442Z" transform="translate(-180.145 -188.551)" fill="#f5f5f5"/>
    <path id="Path_10" data-name="Path 10" d="M227.765,163.269a.208.208,0,0,0,.257-.141l.121-.415a.207.207,0,1,0-.4-.116l-.121.415A.207.207,0,0,0,227.765,163.269Z" transform="translate(-220.08 -162.236)" fill="#f5f5f5"/>
    <path id="Path_11" data-name="Path 11" d="M206.031,159.906a.207.207,0,1,0,.209-.358c-.042-.024-.036-.093-.035-.107a.163.163,0,0,1,.1-.139.208.208,0,0,0-.123-.4.57.57,0,0,0-.384.488A.511.511,0,0,0,206.031,159.906Z" transform="translate(-199.555 -158.897)" fill="#f5f5f5"/>
    <path id="Path_12" data-name="Path 12" d="M178.961,232.189a.207.207,0,0,0-.039.411.39.39,0,0,1,.039.211.207.207,0,1,0,.415,0C179.376,232.2,178.978,232.189,178.961,232.189Z" transform="translate(-174.132 -227.819)" fill="#f5f5f5"/>
    <path id="Path_13" data-name="Path 13" d="M234.839,208.423a.479.479,0,0,0,.078.006.709.709,0,0,0,.491-.245.207.207,0,0,0-.293-.293c-.124.124-.191.127-.208.123-.04-.006-.075-.057-.083-.071a.207.207,0,0,0-.37.188A.561.561,0,0,0,234.839,208.423Z" transform="translate(-226.489 -204.912)" fill="#f5f5f5"/>
    <path id="Path_14" data-name="Path 14" d="M293.993,190.964l0-.009a.207.207,0,0,0-.393.133.465.465,0,0,0,.338.323.348.348,0,0,0,.046,0,.508.508,0,0,0,.4-.277.207.207,0,1,0-.345-.23A.631.631,0,0,1,293.993,190.964Z" transform="translate(-282.116 -188.912)" fill="#f5f5f5"/>
    <path id="Path_15" data-name="Path 15" d="M205.232,171.46c0-.885-.039-1.715-.093-2.442a10.507,10.507,0,0,1,.728,1.478.208.208,0,0,0,.194.135.21.21,0,0,0,.073-.013.208.208,0,0,0,.121-.267,13.739,13.739,0,0,0-1.2-2.274c-.113-1.118-.24-1.827-.243-1.84a.207.207,0,0,0-.408.074c0,.009.067.374.145.989-.159-.237-.307-.45-.432-.626l.01,0a.207.207,0,1,0,.131-.393l-.622-.207a.206.206,0,0,0-.234.075.209.209,0,0,0-.03.064.452.452,0,0,0-.433-.1.353.353,0,0,0-.2.369,1.874,1.874,0,0,0,.143.588c.122.346.2.6.069.722a.227.227,0,0,1-.213.075c-.128-.032-.255-.2-.339-.456a.192.192,0,0,0-.017-.029,3.528,3.528,0,0,0-.063-1.148.207.207,0,1,0-.407.081,1.975,1.975,0,0,1-.109,1.478.373.373,0,0,1-.31.141.119.119,0,0,1-.1-.046,2,2,0,0,1-.11-1.169.208.208,0,0,0-.205-.237c-.357,0-.492.406-.612.764-.052.157-.15.45-.218.481-.126,0-.207-.369-.207-.623a.208.208,0,0,0-.207-.207h0a.207.207,0,0,0-.207.207c0,.479.163,1.037.622,1.037.342,0,.481-.373.6-.719a1.3,1.3,0,0,0,.235.737.532.532,0,0,0,.413.189.789.789,0,0,0,.631-.292.959.959,0,0,0,.077-.114.774.774,0,0,0,.435.326.6.6,0,0,0,.147.019.658.658,0,0,0,.452-.193.609.609,0,0,0,.069-.084.56.56,0,0,0,.153.023.84.84,0,0,0,.43-.132.207.207,0,0,0-.223-.35.44.44,0,0,1-.235.062,2.141,2.141,0,0,0-.157-.682,2.891,2.891,0,0,1-.107-.347c.017.014.034.029.049.044a.207.207,0,0,0,.293,0,.2.2,0,0,0,.03-.045c.215.3.657.919,1.112,1.636.087.882.163,2.007.163,3.242a.208.208,0,0,0,.415,0Z" transform="translate(-193.763 -165.638)" fill="#f5f5f5"/>
    <path id="Path_16" data-name="Path 16" d="M293.794,166.9a.207.207,0,0,0,.415,0,2.116,2.116,0,0,0-.229-.715.207.207,0,0,0-.371.186A1.842,1.842,0,0,1,293.794,166.9Z" transform="translate(-282.117 -165.647)" fill="#f5f5f5"/>
    <path id="Path_17" data-name="Path 17" d="M263.4,250.026a.207.207,0,0,0-.278.091.594.594,0,0,1-.086.123,1.16,1.16,0,0,1,.055-.384.208.208,0,0,0-.345-.208l-.415.415a.207.207,0,0,0,.293.293l.011-.011a.429.429,0,0,0,.111.218.38.38,0,0,0,.27.119.372.372,0,0,0,.057,0,.675.675,0,0,0,.421-.376A.207.207,0,0,0,263.4,250.026Z" transform="translate(-252.668 -244.182)" fill="#f5f5f5"/>
    <path id="Path_18" data-name="Path 18" d="M171.691,205.815h-1.462q.019-.077.04-.148c.583-.121.93-.309,1.032-.561a.464.464,0,0,0-.078-.466.514.514,0,0,0-.525-.224c-.295.06-.557.377-.746.886a2.384,2.384,0,0,0-1.2.518,3.215,3.215,0,0,0-.43-1.379.207.207,0,1,0-.345.23,3,3,0,0,1,.38,1.545,1.642,1.642,0,0,1-1.245,1.66c-.233,0-.335-.277-.38-.511a2.383,2.383,0,0,0,1-1.1,1.65,1.65,0,0,0-.138-1.125l-.015-.036.013.012a.207.207,0,1,0,.293-.293c-.121-.121-.357-.312-.571-.223a.353.353,0,0,0-.2.369.882.882,0,0,0,.1.333,1.254,1.254,0,0,1,.117.861,1.755,1.755,0,0,1-.679.749.2.2,0,0,0-.157-.076h0a.207.207,0,0,0-.207.207c0,.037,0,.077,0,.118a10.91,10.91,0,0,1-1.335.73.207.207,0,0,0,.086.4.2.2,0,0,0,.086-.019,11.953,11.953,0,0,0,1.239-.663.807.807,0,0,0,.75.682,1.762,1.762,0,0,0,1.388-1.015,1.207,1.207,0,0,0,.138.2,2.338,2.338,0,0,0,1.585.609.207.207,0,0,0,.015-.414.444.444,0,0,1-.259-.126.356.356,0,0,1-.068-.272c.021-.256.846-.447,1.573-.458a.208.208,0,0,0,.192-.138l.207-.583a.208.208,0,0,0-.2-.277Zm-.911-.991.016,0c.02,0,.051.01.093.066.008.011.033.047.027.062-.024.059-.167.156-.466.244C170.581,204.938,170.71,204.838,170.78,204.824Zm-1.253,2.727a1.27,1.27,0,0,1-.574-.349.882.882,0,0,1-.184-.731.609.609,0,0,1,.043-.088c.292-.027,1.073.088,1.127.312a.7.7,0,0,0-.439.541A.875.875,0,0,0,169.527,207.551Z" transform="translate(-161.039 -201.64)" fill="#f5f5f5"/>
    <path id="Path_19" data-name="Path 19" d="M291.756,166.834l-.207-.622a.207.207,0,0,0-.4.086c.143,1.432.414,4.224.414,4.544,0,.287-.511.854-1.338,1.267a.207.207,0,0,0,.186.371c.755-.377,1.567-1.051,1.567-1.638,0-.307-.212-2.512-.333-3.751A.208.208,0,0,0,291.756,166.834Z" transform="translate(-278.846 -165.642)" fill="#f5f5f5"/>
    <path id="Path_20" data-name="Path 20" d="M336.029,194.237a.207.207,0,0,0,.348-.2,1.048,1.048,0,0,1-.03-.4.211.211,0,0,0,.216-.178.208.208,0,0,0-.176-.235.375.375,0,0,0-.342.115.475.475,0,0,0-.1.223l-.24-.24a.207.207,0,1,0-.293.293Z" transform="translate(-321.387 -191.173)" fill="#f5f5f5"/>
    <path id="Path_21" data-name="Path 21" d="M340.993,213.3l-.778.558a.207.207,0,1,0,.242.337l.778-.558a.207.207,0,1,0-.242-.337Z" transform="translate(-325.885 -210.022)" fill="#f5f5f5"/>
    <path id="Path_22" data-name="Path 22" d="M352.786,225.742a.208.208,0,0,0,.018.275.575.575,0,0,1,.042.3.207.207,0,0,0,.2.215h.008a.208.208,0,0,0,.207-.2c.015-.423-.123-.578-.184-.625A.207.207,0,0,0,352.786,225.742Z" transform="translate(-337.746 -221.681)" fill="#f5f5f5"/>
    <path id="Path_23" data-name="Path 23" d="M325.144,171.237a.207.207,0,0,0,.207-.207c0-.306-.016-.648-.041-1a7.564,7.564,0,0,1,.486.9.207.207,0,0,0,.191.126.2.2,0,0,0,.082-.017.207.207,0,0,0,.109-.272,11.419,11.419,0,0,0-.949-1.637c-.081-.761-.188-1.508-.27-2.043a.2.2,0,0,0,.13-.032.117.117,0,1,1,.115-.128.755.755,0,0,1,.076.508.207.207,0,0,0,.161.245.218.218,0,0,0,.042,0,.208.208,0,0,0,.2-.166,1.176,1.176,0,0,0-.132-.815.208.208,0,0,0-.287-.064.205.205,0,0,0-.093.188.2.2,0,0,0-.023-.06l-.35-.545a.208.208,0,0,0-.379.148c0,.016.161.927.3,2.024-.159-.225-.318-.444-.472-.654-.025-.314-.05-.6-.072-.844a.213.213,0,0,0,.034-.013.208.208,0,0,0,.093-.278l-.208-.415a.207.207,0,0,0-.392.113c.025.248.051.522.076.81-.131-.173-.253-.331-.357-.465a.208.208,0,0,0-.042-.343l-.415-.207a.208.208,0,0,0-.255.315c.011.014.522.654,1.133,1.481a16.678,16.678,0,0,1,.077,3.1c-.018.055-.05.119-.08.121-.125.017-.425-.263-.575-.563a.289.289,0,0,0-.278-.188c-.223.014-.31.259-.468.7a2.92,2.92,0,0,1-.412.878,2.357,2.357,0,0,1-.258-.817.206.206,0,0,0,.4-.07c0-.309-.216-2.666-.337-3.957a.207.207,0,0,0,.119-.258l-.208-.622a.207.207,0,0,0-.4.085c.141,1.48.405,4.339.414,4.733l0-.011a.207.207,0,1,0-.411.059c.061.424.215,1.153.572,1.272a.347.347,0,0,0,.111.018.408.408,0,0,0,.292-.135,2.992,2.992,0,0,0,.514-1.037c.031-.086.067-.188.1-.275.19.278.522.624.859.6a.509.509,0,0,0,.444-.4,11.686,11.686,0,0,0-.008-2.59c.175.245.35.5.517.744.065.621.111,1.244.111,1.755A.207.207,0,0,0,325.144,171.237Z" transform="translate(-308.294 -165.649)" fill="#f5f5f5"/>
    <path id="Path_24" data-name="Path 24" d="M382.894,170.552c-.147-1.095-.352-2.363-.481-3.142a.2.2,0,0,0,.174-.037.207.207,0,0,0,.039-.291l-.376-.493a.208.208,0,0,0-.369.162c0,.021.374,2.151.6,3.856a1.945,1.945,0,0,1-.342,1.557.918.918,0,0,1-.761.284.207.207,0,1,0-.026.414c.035,0,.07,0,.1,0a1.309,1.309,0,0,0,.987-.418A2.317,2.317,0,0,0,382.894,170.552Z" transform="translate(-364.469 -166.054)" fill="#f5f5f5"/>
    <path id="Path_25" data-name="Path 25" d="M371.07,256.2a.21.21,0,0,0,.01.291.087.087,0,0,1,.025.043.1.1,0,0,1-.031.046.207.207,0,1,0,.293.293.471.471,0,0,0,.153-.354.494.494,0,0,0-.163-.338A.206.206,0,0,0,371.07,256.2Z" transform="translate(-354.927 -250.333)" fill="#f5f5f5"/>
    <path id="Path_26" data-name="Path 26" d="M156.82,327.035h-1.452v-.207a.207.207,0,0,0-.415,0v.207h-11a2.9,2.9,0,0,0,1.867.622h9.129v.415a.207.207,0,0,0,.207.207h1.66a.622.622,0,1,0,0-1.245Zm0,.83h-1.452v-.207h1.66l-.037-.112a.2.2,0,0,1,.037.112A.208.208,0,0,1,156.82,327.865Z" transform="translate(-141.409 -316.62)" fill="#f5f5f5"/>
  </g>
</svg>
