<svg xmlns="http://www.w3.org/2000/svg" width="20.268" height="20" viewBox="0 0 20.268 20">
  <path id="snapchat" d="M19.925,16.1a5.271,5.271,0,0,1-1.343.515,2.363,2.363,0,0,0-.791.294.748.748,0,0,0-.294.607c-.037.2-.055.368-.2.478a2.048,2.048,0,0,1-.9.147,8.49,8.49,0,0,0-2.1.313,6.692,6.692,0,0,0-1.141.589,5.208,5.208,0,0,1-6.017,0,5.349,5.349,0,0,0-1.159-.607,7.6,7.6,0,0,0-2.1-.313,2.106,2.106,0,0,1-.9-.147c-.147-.092-.166-.276-.2-.478a.748.748,0,0,0-.294-.607,3.087,3.087,0,0,0-.791-.313,5.117,5.117,0,0,1-1.343-.5c-.626-.35-.258-.552-.055-.662,3.551-1.711,4.1-4.361,4.121-4.563v-.037a.6.6,0,0,0-.2-.644,11.145,11.145,0,0,0-1.2-.828,3.885,3.885,0,0,0-.5-.313c-.515-.368-.736-.718-.57-1.178a.682.682,0,0,1,.7-.423,1.252,1.252,0,0,1,.276.037,7.283,7.283,0,0,1,.957.313,3.52,3.52,0,0,0,.5.184.274.274,0,0,0,.11.018c.184,0,.239-.092.221-.276a.509.509,0,0,0-.018-.166,22.861,22.861,0,0,1-.018-2.8,4.749,4.749,0,0,1,1.233-3A5.51,5.51,0,0,1,10.1,0a5.59,5.59,0,0,1,4.2,1.73,4.807,4.807,0,0,1,1.233,3.017,18,18,0,0,1-.037,2.889v.055c-.018.2.037.276.221.276a.233.233,0,0,0,.11-.018q.193-.055.5-.166a5.838,5.838,0,0,1,.957-.313.715.715,0,0,1,.276-.037.682.682,0,0,1,.7.442c.166.442-.055.791-.57,1.159a2.989,2.989,0,0,1-.5.313,13.454,13.454,0,0,0-1.2.828.6.6,0,0,0-.2.644v.037c.037.2.589,2.852,4.121,4.563C20.183,15.529,20.551,15.75,19.925,16.1Z" fill="#fff"/>
</svg>
