<svg xmlns="http://www.w3.org/2000/svg" width="23.182" height="18.096" viewBox="0 0 23.182 18.096">
  <path id="twitter" d="M20.8,52.592c.015.2.015.4.015.594A13.154,13.154,0,0,1,7.3,66.177,13.825,13.825,0,0,1,0,64.127a10.222,10.222,0,0,0,1.147.057,9.763,9.763,0,0,0,5.9-1.951A4.74,4.74,0,0,1,2.6,59.066a6.229,6.229,0,0,0,.9.071,5.217,5.217,0,0,0,1.25-.155A4.616,4.616,0,0,1,.941,54.5v-.057a4.932,4.932,0,0,0,2.148.58,4.52,4.52,0,0,1-2.118-3.8,4.4,4.4,0,0,1,.647-2.3,13.693,13.693,0,0,0,9.8,4.778,4.962,4.962,0,0,1-.118-1.046,4.659,4.659,0,0,1,4.751-4.566,4.831,4.831,0,0,1,3.471,1.442,9.588,9.588,0,0,0,3.015-1.1,4.592,4.592,0,0,1-2.089,2.516,9.83,9.83,0,0,0,2.736-.707A10.006,10.006,0,0,1,20.8,52.592Z" transform="translate(0 -48.082)" fill="#fff"/>
</svg>
