<svg xmlns="http://www.w3.org/2000/svg" width="193.723" height="70.079" viewBox="0 0 193.723 70.079">
  <g id="Group_22" data-name="Group 22" transform="translate(292.229 52.439) rotate(173)" opacity="0.45">
    <path id="Path_46" data-name="Path 46" d="M120.732,66.881h32.86a6.322,6.322,0,0,0,6.319-6.31V27.762a6.322,6.322,0,0,0-6.319-6.309h-32.86a6.322,6.322,0,0,0-6.32,6.309V60.571a6.322,6.322,0,0,0,6.32,6.31Zm32.86-42.9a3.793,3.793,0,0,1,3.792,3.786V60.571a3.793,3.793,0,0,1-3.792,3.786h-32.86a3.793,3.793,0,0,1-3.792-3.786V27.762a3.793,3.793,0,0,1,3.792-3.786Z" fill="#417259"/>
    <path id="Path_47" data-name="Path 47" d="M105.565,45.429h32.861a6.322,6.322,0,0,0,6.319-6.31V6.31A6.322,6.322,0,0,0,138.426,0H105.565a6.322,6.322,0,0,0-6.319,6.31V39.119a6.322,6.322,0,0,0,6.319,6.31Zm32.861-42.9a3.792,3.792,0,0,1,3.791,3.786V39.119a3.792,3.792,0,0,1-3.791,3.786H105.565a3.792,3.792,0,0,1-3.791-3.786V6.31a3.792,3.792,0,0,1,3.791-3.786Z" fill="#417259"/>
    <path id="Path_48" data-name="Path 48" d="M230.613,118.161A8.161,8.161,0,1,1,238.786,110,8.167,8.167,0,0,1,230.613,118.161Z" transform="translate(51 -80.388)" fill="#417259"/>
  </g>
</svg>
