<svg xmlns="http://www.w3.org/2000/svg" xmlns:xlink="http://www.w3.org/1999/xlink" width="523" height="336" viewBox="0 0 523 336">
  <defs>
    <clipPath id="clip-path">
      <rect id="Rectangle_89" data-name="Rectangle 89" width="523" height="336" fill="#fff"/>
    </clipPath>
  </defs>
  <g id="undraw_faq_re_31cw_1" data-name="undraw_faq_re_31cw 1" clip-path="url(#clip-path)">
    <path id="Path_49" data-name="Path 49" d="M73.714,335.549c6.022,0,10.9-1.831,10.9-4.089s-4.882-4.088-10.9-4.088-10.9,1.83-10.9,4.088S67.692,335.549,73.714,335.549Z" fill="#2f2e41"/>
    <path id="Path_50" data-name="Path 50" d="M99.882,335c6.021,0,10.9-1.831,10.9-4.089s-4.882-4.089-10.9-4.089-10.9,1.831-10.9,4.089S93.86,335,99.882,335Z" fill="#2f2e41"/>
    <path id="Path_51" data-name="Path 51" d="M134.62,266.281c10.3-5.94,17.144-13.377,15.279-16.611s-11.728-1.042-22.032,4.9-17.144,13.376-15.279,16.611S124.317,272.221,134.62,266.281Z" fill="#2f2e41"/>
    <path id="Path_52" data-name="Path 52" d="M124.948,280.845a43.067,43.067,0,1,0-49.41,35.613A43.068,43.068,0,0,0,124.948,280.845Z" fill="#2f2e41"/>
    <path id="Path_53" data-name="Path 53" d="M75.895,307.746H62.811v23.442H75.895Z" fill="#2f2e41"/>
    <path id="Path_54" data-name="Path 54" d="M102.062,307.746H88.978v23.442h13.084Z" fill="#2f2e41"/>
    <path id="Path_55" data-name="Path 55" d="M83.527,277.762a14.719,14.719,0,1,0-14.719-14.719A14.719,14.719,0,0,0,83.527,277.762Z" fill="#fff"/>
    <path id="Path_56" data-name="Path 56" d="M83.527,267.95a4.907,4.907,0,1,0-4.906-4.907A4.907,4.907,0,0,0,83.527,267.95Z" fill="#3f3d56"/>
    <path id="Path_57" data-name="Path 57" d="M40.66,233.9c-3.478-15.574,7.639-31.31,24.829-35.149s33.944,5.675,37.422,21.249S95,241.313,77.805,245.151,44.137,249.469,40.66,233.9Z" fill="#ccc"/>
    <path id="Path_58" data-name="Path 58" d="M53.384,263.191c1.6-3.374-5.814-10.24-16.559-15.336s-20.753-6.493-22.353-3.12,5.814,10.239,16.559,15.336S51.785,266.564,53.384,263.191Z" fill="#2f2e41"/>
    <path id="Path_59" data-name="Path 59" d="M61.282,289.483c0,4.215,10.853,12.539,22.9,12.539s23.336-11.867,23.336-16.082-11.292.818-23.336.818S61.282,285.268,61.282,289.483Z" fill="#fff"/>
    <path id="Path_60" data-name="Path 60" d="M232.609,335.549c6.021,0,10.9-1.831,10.9-4.089s-4.882-4.088-10.9-4.088-10.9,1.83-10.9,4.088S226.587,335.549,232.609,335.549Z" fill="#2f2e41"/>
    <path id="Path_61" data-name="Path 61" d="M206.441,335c6.022,0,10.9-1.831,10.9-4.089s-4.881-4.089-10.9-4.089-10.9,1.831-10.9,4.089S200.42,335,206.441,335Z" fill="#2f2e41"/>
    <path id="Path_62" data-name="Path 62" d="M193.735,271.179c1.865-3.235-4.976-10.672-15.28-16.611s-20.167-8.133-22.032-4.9,4.977,10.671,15.28,16.611S191.87,274.414,193.735,271.179Z" fill="#2f2e41"/>
    <path id="Path_63" data-name="Path 63" d="M223.886,317.014a43.068,43.068,0,1,0-43.067-43.068A43.068,43.068,0,0,0,223.886,317.014Z" fill="#2f2e41"/>
    <path id="Path_64" data-name="Path 64" d="M243.512,307.746H230.428v23.442h13.084Z" fill="#2f2e41"/>
    <path id="Path_65" data-name="Path 65" d="M217.344,307.746H204.261v23.442h13.083Z" fill="#2f2e41"/>
    <path id="Path_66" data-name="Path 66" d="M213.8,277.762a14.719,14.719,0,1,0-14.719-14.719A14.719,14.719,0,0,0,213.8,277.762Z" fill="#fff"/>
    <path id="Path_67" data-name="Path 67" d="M210.249,264.5a4.886,4.886,0,1,0-6.934.021A4.9,4.9,0,0,0,210.249,264.5Z" fill="#3f3d56"/>
    <path id="Path_68" data-name="Path 68" d="M228.518,245.151c-17.19-3.838-28.583-9.582-25.105-25.156s20.232-25.087,37.421-21.249,28.307,19.575,24.829,35.149S245.708,248.989,228.518,245.151Z" fill="#88bdc3"/>
    <path id="Path_69" data-name="Path 69" d="M268.922,306.775c3.609-.958,4.059-11.053,1.006-22.547s-8.453-20.036-12.061-19.077-4.059,11.053-1.006,22.547S265.314,307.733,268.922,306.775Z" fill="#2f2e41"/>
    <path id="Path_70" data-name="Path 70" d="M214.129,286.758c-7.906,0-15.32-5.033-15.32-.818s7.414,16.082,15.32,16.082,15.032-8.323,15.032-12.538S222.036,286.758,214.129,286.758Z" fill="#fff"/>
    <path id="Path_71" data-name="Path 71" d="M158.472,202.539h-3.825a12.936,12.936,0,0,1-12.923-12.923V186.4c0-7.953,1.507-14.612,4.479-19.792a104.117,104.117,0,0,1,12.542-16.852,74.182,74.182,0,0,0,8.528-10.279,17.287,17.287,0,0,0,2.693-9.562c0-7.978-5.2-11.857-15.89-11.857a64.562,64.562,0,0,0-17.515,2.629,14.746,14.746,0,0,1-18.793-14.178v-6.5A14.463,14.463,0,0,1,126.3,86.758,78.086,78.086,0,0,1,158.11,80.5c11.445,0,21.776,1.922,30.707,5.713,8.948,3.8,16.017,9.157,21.012,15.924a38.354,38.354,0,0,1,7.536,23.244c0,8.98-2.452,16.8-7.287,23.246-4.782,6.38-11.638,13.365-20.376,20.761a145.231,145.231,0,0,0-13.063,12.306,22.729,22.729,0,0,0-5.432,10.112,12.888,12.888,0,0,1-12.735,10.733Z" fill="#417259"/>
    <path id="Path_72" data-name="Path 72" d="M156.345,263.311h-.5a23.952,23.952,0,0,1,0-47.9h.5a23.952,23.952,0,1,1,0,47.9Z" fill="#417259"/>
    <path id="Path_73" data-name="Path 73" d="M312,336H1a1,1,0,0,1,0-2H312a1,1,0,0,1,0,2Z" fill="#ccc"/>
    <path id="Path_74" data-name="Path 74" d="M408.161,149h-26a5.007,5.007,0,0,1-5-5V118a5.007,5.007,0,0,1,5-5h26a5.005,5.005,0,0,1,5,5v26a5.005,5.005,0,0,1-5,5Zm-26-34a3,3,0,0,0-3,3v26a3,3,0,0,0,3,3h26a3,3,0,0,0,3-3V118a3,3,0,0,0-3-3Z" fill="#f2f2f2"/>
    <path id="Path_75" data-name="Path 75" d="M420.161,132h-26a5.007,5.007,0,0,1-5-5V101a5.007,5.007,0,0,1,5-5h26a5.006,5.006,0,0,1,5,5v26a5.005,5.005,0,0,1-5,5Zm-26-34a3,3,0,0,0-3,3v26a3,3,0,0,0,3,3h26a3,3,0,0,0,3-3V101a3,3,0,0,0-3-3Z" fill="#f2f2f2"/>
    <path id="Path_76" data-name="Path 76" d="M215.161,49h-26a5.007,5.007,0,0,1-5-5V18a5.007,5.007,0,0,1,5-5h26a5.006,5.006,0,0,1,5,5V44a5.006,5.006,0,0,1-5,5Zm-26-34a3,3,0,0,0-3,3V44a3,3,0,0,0,3,3h26a3,3,0,0,0,3-3V18a3,3,0,0,0-3-3Z" fill="#f2f2f2"/>
    <path id="Path_77" data-name="Path 77" d="M199.161,36h-26a5.007,5.007,0,0,1-5-5V5a5.007,5.007,0,0,1,5-5h26a5.006,5.006,0,0,1,5,5V31a5.006,5.006,0,0,1-5,5Zm-26-34a3,3,0,0,0-3,3V31a3,3,0,0,0,3,3h26a3,3,0,0,0,3-3V5a3,3,0,0,0-3-3Z" fill="#f2f2f2"/>
    <path id="Path_78" data-name="Path 78" d="M321.22,189.637a6.467,6.467,0,1,0-6.466-6.467A6.467,6.467,0,0,0,321.22,189.637Z" fill="#f2f2f2"/>
    <path id="Path_79" data-name="Path 79" d="M61.221,166.637a6.467,6.467,0,1,0-6.467-6.467A6.467,6.467,0,0,0,61.221,166.637Z" fill="#f2f2f2"/>
    <path id="Path_80" data-name="Path 80" d="M497.22,222.637a6.467,6.467,0,1,0-6.466-6.467A6.467,6.467,0,0,0,497.22,222.637Z" fill="#f2f2f2"/>
  </g>
</svg>
