<svg width="166" height="57" viewBox="0 0 166 57" fill="none" xmlns="http://www.w3.org/2000/svg"><g id="Logo 1" clip-path="url(#clip0_1_2)"><g id="translate_4" style="transform-origin: center; transform-box: fill-box; animation: translateX 3s linear infinite;"><path id="translate_2" style="transform-origin: center; transform-box: fill-box; animation: translateYR 3s linear infinite;" fill-rule="evenodd" clip-rule="evenodd" d="M103.216 40.77C103.223 41.206 102.928 41.298 102.78 41.504C101.98 42.609 102.147 43.496 103.304 44.11C105.133 45.079 107.125 45.175 109.082 45.449C117.345 46.6308 125.757 46.2542 133.882 44.339C134.627 44.0929 135.42 44.0298 136.194 44.1552C136.968 44.2805 137.701 44.5905 138.33 45.059C140.091 46.2112 141.935 47.2307 143.847 48.109C142.381 48.9557 140.827 49.6378 139.211 50.143C132.574 52.5211 125.56 53.6775 118.511 53.556C113.151 53.5987 107.827 52.6739 102.795 50.826C101.117 50.2593 99.5821 49.3362 98.295 48.12C96.616 46.407 96.652 44.752 98.46 43.201C99.8653 42.0784 101.483 41.2515 103.216 40.77V40.77Z" fill="#fff"/><path id="translate_1" style="transform-origin: center; transform-box: fill-box; animation: translateY 3s linear infinite;" fill-rule="evenodd" clip-rule="evenodd" d="M156.383 15.771C154.392 17.171 152.574 18.816 150.628 20.087C149.243 20.8443 147.743 21.3693 146.188 21.641C138.465 23.5909 130.57 24.7832 122.616 25.201C115.088 25.6953 107.531 25.537 100.03 24.728C95.822 24.248 91.603 23.694 87.574 21.8C87.0909 21.5782 86.6335 21.3042 86.21 20.983C84.664 19.788 84.598 18.37 86.022 16.945C87.0595 15.9822 88.2232 15.1651 89.481 14.516C94.7423 11.3645 100.611 9.36297 106.702 8.643C107.582 8.553 108.472 8.631 109.686 8.631C107.331 9.56 105.262 10.322 103.219 11.196C100.817 12.0941 98.566 13.3536 96.544 14.931C96.1838 15.1496 95.8853 15.4564 95.6765 15.8225C95.4678 16.1885 95.3558 16.6017 95.351 17.023C95.426 18.076 96.24 18.402 96.877 18.684C100.051 20.084 103.365 20.264 106.663 20.46C114.354 20.811 122.06 20.6333 129.726 19.928C138.506 19.1798 147.222 17.8158 155.81 15.846C155.999 15.801 156.193 15.795 156.383 15.771Z" fill="#fff"/><g id="translate_3" style="transform-origin: center; transform-box: fill-box; animation: translateX 3s linear infinite;"><path id="Path 3" fill-rule="evenodd" clip-rule="evenodd" d="M98.246 25.012C97.835 25.668 97.537 26.112 97.264 26.583C95.964 28.822 96.403 30.627 98.474 31.558C99.6742 32.0922 100.945 32.4519 102.247 32.626C113.537 34.2954 125.025 34.0863 136.247 32.007C138.802 31.514 141.347 30.899 143.881 30.27C144.319 30.1252 144.792 30.1214 145.233 30.2591C145.674 30.3969 146.06 30.6693 146.338 31.038C147.825 32.7439 149.669 34.1031 151.738 35.02C149.831 36.0157 147.804 36.7609 145.706 37.237C138.138 39.4845 130.329 40.8212 122.445 41.219C114.158 41.638 105.902 41.284 97.798 38.707C95.5722 38.0953 93.5057 37.0079 91.741 35.52C89.591 33.6 89.519 31.135 91.607 29.057C93.4901 27.2297 95.7587 25.8476 98.246 25.012V25.012Z" fill="#1D77B8"/><path id="Path 4" d="M164.448 52.236C163.772 51.4457 163.201 50.5719 162.748 49.636C162.204 48.5633 161.64 47.3487 161.055 45.992C160.439 44.574 159.718 43.2036 158.899 41.892C157.975 40.4184 156.949 39.0116 155.828 37.682C154.766 36.413 153.572 35.2614 152.265 34.247C151.075 33.3197 149.773 32.5469 148.389 31.947C147.476 31.5529 146.509 31.2955 145.521 31.183L139.905 31.231L139.936 34.847C141.217 34.8762 142.481 35.1529 143.657 35.662C145.041 36.2618 146.343 37.0346 147.533 37.962C148.84 38.9764 150.035 40.128 151.097 41.397C152.218 42.7267 153.244 44.1335 154.168 45.607C154.987 46.9186 155.707 48.289 156.323 49.707C156.908 51.063 157.473 52.2773 158.016 53.35C158.469 54.286 159.04 55.1598 159.716 55.95C159.99 56.2694 160.332 56.5234 160.717 56.6935C161.101 56.8636 161.519 56.9454 161.94 56.933C162.512 56.931 163.075 56.7874 163.578 56.515C164.08 56.2454 164.524 55.8814 164.888 55.443C165.254 55.003 165.546 54.5066 165.753 53.973C165.858 53.7053 165.938 53.4284 165.992 53.146C165.392 53.0196 164.849 52.7 164.448 52.236Z" fill="#1D77B8"/><path id="Path 5" fill-rule="evenodd" clip-rule="evenodd" d="M141.199 34.073C141.966 32.637 143.378 32.073 144.533 31.212C148.765 28.059 152.775 24.692 155.69 20.212C157.443 17.7844 158.388 14.8665 158.39 11.872C158.162 5.52099 151.546 1.023 145.205 2.841C144.173 3.141 143.169 3.516 142.093 3.875C142.119 3.52551 142.246 3.19097 142.457 2.91121C142.668 2.63145 142.955 2.41826 143.284 2.297C148.018 -0.430003 154.984 -1.084 160.1 2.297C165.671 5.97 166.876 12.75 163.1 18.936C160.4 23.352 156.425 26.402 152.089 29.019C149.129 30.7963 146.017 32.3056 142.789 33.529C142.261 33.727 141.726 33.892 141.199 34.073Z" fill="#1D77B8"/></g></g><g id="Group 2"><path id="Path 6" d="M7.83698 14.19C9.46698 14.0873 10.282 13.8033 10.282 13.338C10.2775 13.2897 10.2602 13.2435 10.2319 13.2042C10.2036 13.1648 10.1653 13.1337 10.121 13.114C10.0136 13.0473 9.88331 12.9773 9.72998 12.904C9.57664 12.8307 9.40665 12.7447 9.21998 12.646C9.03429 12.5487 8.86271 12.4266 8.70998 12.283C8.55109 12.1316 8.41889 11.9544 8.31898 11.759C8.20612 11.529 8.15086 11.2751 8.15798 11.019C8.1555 10.6439 8.28108 10.2791 8.51398 9.985C8.77995 9.65338 9.10723 9.376 9.47798 9.168C9.92257 8.91368 10.3964 8.71422 10.889 8.574C11.4494 8.41043 12.0214 8.28909 12.6 8.211V10.011C11.9706 10.0715 11.3512 10.2099 10.756 10.423C10.374 10.5857 10.183 10.7743 10.183 10.989C10.186 11.0393 10.2025 11.0879 10.2309 11.1297C10.2592 11.1714 10.2983 11.2047 10.344 11.226C10.4513 11.2927 10.5816 11.3627 10.735 11.436L11.245 11.68C11.4309 11.7682 11.6028 11.8834 11.755 12.022C11.9116 12.1663 12.0437 12.3352 12.146 12.522C12.2594 12.7392 12.3149 12.9821 12.307 13.227C12.301 13.5554 12.2071 13.8762 12.035 14.156C11.8259 14.4968 11.5446 14.7876 11.211 15.008C10.7797 15.294 10.3077 15.5131 9.81098 15.658C9.16818 15.8481 8.50389 15.9559 7.83398 15.979L7.83698 14.19ZM19.782 17.906C19.782 18.39 19.796 18.809 19.824 19.163C19.8384 19.4747 19.9321 19.7775 20.096 20.043C20.2688 20.2901 20.5195 20.4722 20.808 20.56C21.2502 20.6881 21.7099 20.7448 22.17 20.728V24.528H21.527C20.8312 24.5483 20.1402 24.4073 19.508 24.116C18.9646 23.8531 18.5277 23.4119 18.27 22.866H18.186C17.7798 23.2889 17.2897 23.622 16.747 23.844C16.1533 24.087 15.535 24.265 14.903 24.375C14.1875 24.5009 13.464 24.5758 12.738 24.599C11.9646 24.627 11.159 24.641 10.321 24.641C9.45431 24.641 8.60431 24.6293 7.77098 24.606C6.93764 24.5827 6.15065 24.5243 5.40998 24.431C4.71846 24.3471 4.03576 24.2019 3.36998 23.997C2.78923 23.8263 2.24625 23.5466 1.76998 23.173C1.4403 22.9183 1.15684 22.6087 0.931977 22.258C0.708803 21.9095 0.525964 21.5368 0.386979 21.147C0.246703 20.753 0.146199 20.346 0.0869761 19.932C0.0265884 19.5157 -0.00381895 19.0956 -0.00401969 18.675C-0.00477743 18.0342 0.0443667 17.3942 0.142976 16.761C0.240976 16.137 0.368979 15.5177 0.526979 14.903H3.51698C3.44231 15.2477 3.37565 15.5573 3.31698 15.832C3.25831 16.1067 3.20931 16.3627 3.16998 16.6C3.12798 16.8373 3.09765 17.068 3.07898 17.292C3.06031 17.516 3.05098 17.7443 3.05098 17.977C3.04772 18.3488 3.0972 18.7191 3.19798 19.077C3.31968 19.4451 3.55761 19.7637 3.87598 19.985C4.14859 20.1871 4.45267 20.3429 4.77598 20.446C5.21482 20.584 5.66643 20.6774 6.12398 20.725C6.66398 20.7917 7.30665 20.836 8.05198 20.858C8.79731 20.88 9.68198 20.8917 10.706 20.893C11.9353 20.893 12.9436 20.8767 13.731 20.844C14.3591 20.8355 14.9835 20.7465 15.589 20.579C15.9749 20.4826 16.3111 20.2459 16.532 19.915C16.7285 19.5313 16.8199 19.1025 16.797 18.672V3H19.773L19.782 17.906ZM21.752 25.981H29.252V27.606H21.752V25.981ZM24.015 24.528H22.17C22.0104 24.5278 21.8547 24.4789 21.7237 24.3877C21.5926 24.2966 21.4926 24.1676 21.437 24.018C21.2552 23.578 21.1719 23.1036 21.193 22.628C21.1719 22.1524 21.2552 21.678 21.437 21.238C21.4926 21.0884 21.5926 20.9594 21.7237 20.8683C21.8547 20.7771 22.0104 20.7282 22.17 20.728H24.154C24.5266 20.728 24.8526 20.714 25.132 20.686C25.3775 20.6692 25.6152 20.5923 25.824 20.462C26.0157 20.3273 26.158 20.1334 26.229 19.91C26.3302 19.5727 26.3751 19.2209 26.362 18.869V12.234H29.338V18.968C29.3693 19.9165 29.22 20.8623 28.898 21.755C28.6525 22.4096 28.2492 22.9936 27.724 23.455C27.2316 23.8664 26.6492 24.1559 26.024 24.3C25.3656 24.4545 24.6913 24.5311 24.015 24.528V24.528ZM27.115 9.428H23.832V6.48H27.115V9.428ZM31.893 9.428H28.61V6.48H31.893V9.428ZM31.726 26.606C32.238 26.8013 32.7153 26.9643 33.158 27.095C33.6006 27.2257 34.0173 27.3327 34.408 27.416C34.7768 27.4965 35.1502 27.5549 35.526 27.591C35.88 27.6237 36.2293 27.64 36.574 27.64C37.1297 27.6523 37.6839 27.5767 38.216 27.416C38.6252 27.2893 39.0086 27.0905 39.348 26.829C39.6365 26.6031 39.8783 26.3232 40.06 26.005C40.227 25.7105 40.356 25.396 40.444 25.069C40.4626 25.0023 40.4836 24.9117 40.507 24.797C40.5303 24.6823 40.5513 24.5683 40.57 24.455H39.313C37.7907 24.5596 36.2825 24.1063 35.07 23.18C34.5677 22.7137 34.1755 22.1414 33.9218 21.5048C33.6681 20.8681 33.5592 20.183 33.603 19.499C33.606 18.7264 33.7357 17.9596 33.987 17.229C34.2273 16.501 34.5759 15.8132 35.021 15.189C35.4324 14.6091 35.949 14.1114 36.544 13.722C37.0872 13.3566 37.7263 13.1597 38.381 13.156C39.0859 13.1493 39.7751 13.3644 40.351 13.771C41.0383 14.2934 41.6131 14.9492 42.041 15.699C42.4764 16.41 42.8153 17.1757 43.049 17.976C43.3151 18.8742 43.4953 19.7957 43.587 20.728H46.06V24.528H43.545C43.436 25.4839 43.2006 26.4211 42.845 27.315C42.525 28.1286 42.059 28.8769 41.47 29.523C40.8889 30.1483 40.1821 30.6434 39.396 30.976C38.5103 31.3399 37.5593 31.5183 36.602 31.5C36.2106 31.5 35.824 31.4813 35.442 31.444C35.0495 31.4049 34.6597 31.3418 34.275 31.255C33.879 31.1663 33.4716 31.0547 33.053 30.92C32.6343 30.7853 32.192 30.6187 31.726 30.42V26.606ZM40.346 19.719C40.2342 19.3836 40.1037 19.0547 39.955 18.734C39.819 18.4349 39.6567 18.1484 39.47 17.878C39.3121 17.6465 39.1187 17.4413 38.897 17.27C38.7186 17.1256 38.4974 17.0444 38.268 17.039C38.0187 17.0412 37.7775 17.1271 37.583 17.283C37.3669 17.448 37.1782 17.6461 37.024 17.87C36.8675 18.0947 36.7408 18.3387 36.647 18.596C36.5616 18.8123 36.5143 19.0416 36.507 19.274C36.477 19.5216 36.5236 19.7724 36.6405 19.9927C36.7575 20.213 36.9391 20.3921 37.161 20.506C37.7846 20.7432 38.4507 20.8477 39.117 20.813H40.598C40.5606 20.6457 40.5233 20.464 40.486 20.268C40.4515 20.0834 40.4047 19.9014 40.346 19.723V19.719ZM47.904 24.525H46.06C45.9004 24.5248 45.7447 24.4759 45.6137 24.3847C45.4826 24.2936 45.3826 24.1646 45.327 24.015C45.1452 23.575 45.0619 23.1006 45.083 22.625C45.0619 22.1494 45.1452 21.675 45.327 21.235C45.3826 21.0854 45.4826 20.9564 45.6137 20.8653C45.7447 20.7741 45.9004 20.7252 46.06 20.725H48.044C48.3846 20.728 48.7252 20.7116 49.064 20.676C49.3077 20.6557 49.5428 20.5764 49.749 20.445C49.9359 20.3099 50.0713 20.1152 50.133 19.893C50.2233 19.5584 50.2634 19.2123 50.252 18.866V12.234H53.228V17.906C53.228 18.39 53.242 18.809 53.27 19.163C53.2844 19.4747 53.3781 19.7775 53.542 20.043C53.7148 20.2901 53.9655 20.4722 54.254 20.56C54.6961 20.6881 55.1559 20.7448 55.616 20.728V24.528H54.97C54.2568 24.5467 53.5476 24.4159 52.888 24.144C52.3303 23.9051 51.8793 23.4705 51.62 22.922H51.536C51.3122 23.2317 51.0384 23.5021 50.726 23.722C50.4373 23.922 50.1253 24.0862 49.797 24.211C49.4835 24.3299 49.1578 24.4141 48.826 24.462C48.5206 24.5057 48.2125 24.5278 47.904 24.528V24.525ZM53.115 29.359H49.832V26.414H53.115V29.359ZM57.46 24.525H55.616C55.4564 24.5248 55.3007 24.4759 55.1697 24.3847C55.0386 24.2936 54.9386 24.1646 54.883 24.015C54.7012 23.575 54.6179 23.1006 54.639 22.625C54.6179 22.1494 54.7012 21.675 54.883 21.235C54.9386 21.0854 55.0386 20.9564 55.1697 20.8653C55.3007 20.7741 55.4564 20.7252 55.616 20.725H57.6C57.9726 20.725 58.2986 20.711 58.578 20.683C58.8235 20.6662 59.0612 20.5893 59.27 20.459C59.4592 20.3245 59.5996 20.1322 59.67 19.911C59.7712 19.5737 59.8161 19.2219 59.803 18.87V12.234H62.779V18.968C62.8113 19.9163 62.663 20.8621 62.342 21.755C62.0968 22.4087 61.6942 22.9919 61.17 23.453C60.6776 23.8644 60.0952 24.1539 59.47 24.298C58.811 24.4534 58.136 24.5306 57.459 24.528L57.46 24.525ZM59.486 29.219H56.203V26.275H59.486V29.219ZM64.264 29.219H60.98V26.275H64.263L64.264 29.219ZM65.172 27.119C65.8146 27.305 66.3526 27.4383 66.786 27.519C67.1796 27.5944 67.5792 27.6342 67.98 27.638C68.6187 27.6636 69.2533 27.5259 69.824 27.238C70.2831 26.9887 70.6684 26.6227 70.941 26.177C71.2216 25.6998 71.4086 25.1733 71.492 24.626C71.5921 24.0118 71.6412 23.3903 71.639 22.768C71.6388 22.1452 71.5967 21.5231 71.513 20.906C71.423 20.2546 71.2971 19.6086 71.136 18.971C70.9686 18.3003 70.7613 17.5927 70.514 16.848C70.2666 16.1033 69.9853 15.2873 69.67 14.4H72.97C73.2586 15.1173 73.5123 15.8437 73.731 16.579C73.9496 17.3143 74.1326 18.0503 74.28 18.787C74.4293 19.5203 74.541 20.242 74.615 20.952C74.6879 21.6296 74.7253 22.3105 74.727 22.992C74.7538 24.2886 74.5722 25.5811 74.189 26.82C73.8861 27.7904 73.3921 28.6905 72.736 29.467C72.1595 30.1375 71.4346 30.6645 70.619 31.006C69.8127 31.3391 68.9484 31.509 68.076 31.506C67.6234 31.5053 67.172 31.4608 66.728 31.373C66.1976 31.26 65.6767 31.1062 65.17 30.913L65.172 27.119Z" fill="#fff"/><path id="Path 7" opacity="0.5" d="M13.451 50L11.772 46.309C11.5506 45.7238 11.1955 45.1985 10.735 44.775C10.3569 44.5043 9.89965 44.3668 9.43497 44.384H7.87098V50H7.00098V37.4H10.501C11.4597 37.3448 12.4019 37.668 13.125 38.3C13.4432 38.6061 13.6929 38.9762 13.8573 39.386C14.0218 39.7958 14.0973 40.2358 14.079 40.677C14.1065 41.5059 13.8281 42.316 13.297 42.953C12.7275 43.589 11.9535 44.0058 11.109 44.131V44.166C11.7945 44.5814 12.3113 45.2256 12.568 45.985L14.435 50H13.451ZM7.86998 38.2V43.6H10.041C10.8721 43.6443 11.6896 43.3745 12.331 42.844C12.616 42.5818 12.8397 42.26 12.9863 41.9016C13.1329 41.5431 13.1987 41.1568 13.179 40.77C13.1973 40.4189 13.1383 40.0682 13.0061 39.7424C12.8739 39.4167 12.6718 39.124 12.414 38.885C11.7944 38.3943 11.0145 38.1516 10.226 38.204L7.86998 38.2ZM17.011 45.539C16.9495 46.5761 17.2526 47.602 17.868 48.439C18.1521 48.7833 18.5124 49.0566 18.9205 49.2375C19.3285 49.4184 19.7731 49.5017 20.219 49.481C21.3012 49.4538 22.3423 49.0604 23.172 48.365V49.226C22.2653 49.88 21.1739 50.2282 20.056 50.22C19.5235 50.2378 18.9938 50.1347 18.5068 49.9186C18.0198 49.7024 17.5881 49.3788 17.244 48.972C16.4724 47.9655 16.0916 46.7136 16.172 45.448C16.1351 44.2433 16.533 43.0655 17.293 42.13C17.6409 41.6961 18.0844 41.3485 18.5888 41.1144C19.0933 40.8802 19.645 40.7657 20.201 40.78C20.6935 40.7528 21.1853 40.8459 21.6339 41.0511C22.0825 41.2563 22.4744 41.5676 22.776 41.958C23.4222 42.9019 23.7386 44.0328 23.676 45.175V45.535L17.011 45.539ZM22.829 44.801C22.8493 43.9356 22.5871 43.087 22.082 42.384C21.8525 42.1003 21.5595 41.8745 21.2267 41.7249C20.8939 41.5753 20.5305 41.5062 20.166 41.523C19.7763 41.511 19.3883 41.5802 19.0268 41.7262C18.6653 41.8721 18.3381 42.0917 18.066 42.371C17.4662 43.0452 17.1074 43.8997 17.046 44.8L22.829 44.801ZM26.749 48.401H26.714V54.14H25.905V41H26.714V42.854H26.749C27.0484 42.217 27.53 41.6831 28.133 41.32C28.731 40.9601 29.417 40.7729 30.115 40.779C30.6223 40.7539 31.1284 40.8478 31.593 41.053C32.0576 41.2582 32.4678 41.5691 32.791 41.961C33.4777 42.887 33.819 44.0239 33.756 45.175C33.8187 46.4824 33.4304 47.7717 32.656 48.827C32.3154 49.2748 31.8729 49.6347 31.3652 49.877C30.8575 50.1193 30.2993 50.2369 29.737 50.22C29.1154 50.2428 28.5008 50.0824 27.9696 49.7589C27.4383 49.4353 27.0139 48.9628 26.749 48.4V48.401ZM26.714 45.052V46.186C26.6964 47.0401 27.0005 47.8696 27.566 48.51C27.8437 48.8285 28.189 49.0809 28.5767 49.2489C28.9644 49.4169 29.3847 49.4962 29.807 49.481C30.2495 49.4867 30.6865 49.3816 31.078 49.1754C31.4696 48.9691 31.8034 48.6682 32.049 48.3C32.6608 47.383 32.9626 46.2941 32.91 45.193C32.9615 44.2351 32.6822 43.2886 32.119 42.512C31.8711 42.1914 31.5507 41.9342 31.1841 41.7615C30.8174 41.5889 30.415 41.5058 30.01 41.519C29.5501 41.4937 29.0906 41.5759 28.6679 41.759C28.2453 41.9421 27.8711 42.2211 27.575 42.574C27.0029 43.2716 26.6977 44.15 26.714 45.052V45.052ZM39.598 50.22C39.0148 50.2472 38.4328 50.1447 37.894 49.9199C37.3552 49.6951 36.8729 49.3536 36.482 48.92C35.6918 47.9808 35.2828 46.7793 35.336 45.553C35.2606 44.2719 35.6915 43.0124 36.536 42.046C36.9433 41.6237 37.4356 41.2925 37.9803 41.0743C38.525 40.856 39.1097 40.7557 39.696 40.78C40.264 40.7526 40.8311 40.8511 41.3566 41.0684C41.8821 41.2857 42.3531 41.6165 42.736 42.037C43.5303 43.0171 43.9297 44.2586 43.856 45.518C43.9121 46.7533 43.5064 47.9654 42.718 48.918C42.3278 49.3537 41.8451 49.6968 41.3053 49.922C40.7655 50.1473 40.1822 50.2491 39.598 50.22V50.22ZM39.66 41.52C39.1842 41.4994 38.7098 41.5849 38.2712 41.7703C37.8326 41.9557 37.4407 42.2364 37.124 42.592C36.4512 43.4339 36.1145 44.4953 36.179 45.571C36.1286 46.5984 36.457 47.6086 37.102 48.41C37.4148 48.7668 37.8042 49.0485 38.2411 49.2339C38.6779 49.4193 39.151 49.5038 39.625 49.481C40.0946 49.5079 40.5641 49.4267 40.9975 49.2439C41.4309 49.061 41.8166 48.7812 42.125 48.426C42.7567 47.586 43.0699 46.5492 43.009 45.5C43.0793 44.4428 42.769 43.3952 42.134 42.547C41.8257 42.1993 41.4425 41.9261 41.0132 41.748C40.584 41.5699 40.1199 41.4916 39.656 41.519L39.66 41.52ZM49.644 49.878C49.2754 50.0646 48.87 50.1671 48.457 50.178C47.1236 50.178 46.457 49.381 46.457 47.787V41.738H44.84V41H46.457V38.662C46.5856 38.6153 46.719 38.5683 46.857 38.521C46.995 38.4737 47.1283 38.4297 47.257 38.389V41H49.63V41.738H47.257V47.68C47.2247 48.1503 47.3322 48.6196 47.566 49.029C47.6847 49.1764 47.8384 49.2917 48.013 49.3645C48.1877 49.4374 48.3777 49.4654 48.566 49.446C48.9482 49.4321 49.3204 49.3202 49.647 49.121L49.644 49.878ZM51.622 45.536C51.5605 46.5731 51.8636 47.599 52.479 48.436C52.7628 48.7808 53.123 49.0548 53.5311 49.2362C53.9391 49.4175 54.3839 49.5014 54.83 49.481C55.9122 49.4538 56.9533 49.0604 57.783 48.365V49.226C56.8751 49.8805 55.7821 50.2284 54.663 50.219C54.1305 50.2368 53.6008 50.1337 53.1138 49.9176C52.6268 49.7014 52.1951 49.3778 51.851 48.971C51.0794 47.9645 50.6986 46.7126 50.779 45.447C50.7421 44.2423 51.14 43.0645 51.9 42.129C52.2484 41.6948 52.6926 41.347 53.1978 41.113C53.703 40.879 54.2554 40.765 54.812 40.78C55.3045 40.7528 55.7963 40.8459 56.2449 41.0511C56.6935 41.2563 57.0854 41.5676 57.387 41.958C58.0332 42.9019 58.3496 44.0328 58.287 45.175V45.535L51.622 45.536ZM57.44 44.798C57.4603 43.9326 57.1981 43.084 56.693 42.381C56.4635 42.0973 56.1705 41.8715 55.8377 41.7219C55.5049 41.5723 55.1415 41.5032 54.777 41.52C54.3873 41.508 53.9993 41.5772 53.6378 41.7232C53.2763 41.8691 52.9491 42.0887 52.677 42.368C52.0762 43.0429 51.717 43.8985 51.656 44.8L57.44 44.798ZM66.906 54.14V48.348H66.871C66.5694 48.9442 66.1 49.4392 65.5205 49.7719C64.9411 50.1045 64.2769 50.2603 63.61 50.22C63.0923 50.237 62.5776 50.1339 62.1064 49.9188C61.6352 49.7036 61.2202 49.3823 60.894 48.98C60.1664 48.024 59.8021 46.8407 59.866 45.641C59.7959 44.3525 60.2132 43.0849 61.035 42.09C61.403 41.6661 61.8602 41.3288 62.3738 41.1024C62.8874 40.8759 63.4448 40.7658 64.006 40.78C64.5966 40.7417 65.1852 40.8812 65.6958 41.1804C66.2064 41.4797 66.6157 41.925 66.871 42.459H66.906V41H67.715V54.14H66.906ZM66.906 44.604C66.9367 43.793 66.6571 43.0009 66.124 42.389C65.8478 42.0948 65.5107 41.8646 65.1362 41.7143C64.7617 41.564 64.3589 41.4974 63.956 41.519C63.5122 41.5113 63.0724 41.6046 62.67 41.7919C62.2675 41.9792 61.9129 42.2555 61.633 42.6C60.9715 43.4587 60.6436 44.5281 60.71 45.61C60.6516 46.6237 60.9417 47.6269 61.532 48.453C61.7805 48.7807 62.1033 49.0447 62.4738 49.2234C62.8442 49.4021 63.2518 49.4904 63.663 49.481C64.1111 49.5097 64.5599 49.4377 64.9766 49.2704C65.3932 49.1031 65.7672 48.8446 66.071 48.514C66.6323 47.8565 66.9299 47.0142 66.906 46.15V44.604Z" fill="#fff"/></g></g><defs><clipPath id="clip0_1_2"><rect width="166" height="56.94" fill="white"/></clipPath></defs><style> @keyframes translateX { 0%, 100% { transform: translateX(0px); } 50% { transform: translateX(-4px); } } @keyframes translateY { 0%, 100% { transform: translateY(0px); } 50% { transform: translateY(4px); } } @keyframes translateYR { 0%, 100% { transform: translateY(0px); } 50% { transform: translateY(-4px); } } @keyframes rotation { 0% { transform: rotate(0deg); } 50% { transform: rotate(10deg); } 100% { transform: rotate(0deg); } }</style></svg>